<svg xmlns="http://www.w3.org/2000/svg" id="pros-and-cons" viewBox="0 0 1000 1000">
  <polygon points="500.07 578.4 446.65 740.97 553.49 740.97 500.07 578.4" style="fill:#245f75"></polygon>
  <path d="M631.47 819.65H368.67V799.77a38.8 38.8 0 0 1 38.8-38.8h185.2a38.8 38.8 0 0 1 38.8 38.8v19.88ZM218.68 591.76A111.37 111.37 0 0 0 330.05 480.4H107.32A111.36 111.36 0 0 0 218.68 591.76ZM460.14 635.86l-11.5 35h-230a17.5 17.5 0 0 1-17.5-17.5V610.59a131.46 131.46 0 0 0 35 0v25.27ZM781.32 591.76A111.37 111.37 0 0 1 670 480.4H892.68A111.36 111.36 0 0 1 781.32 591.76ZM798.82 610.59v42.77a17.5 17.5 0 0 1-17.5 17.5H551.51l-11.5-35H763.82V610.59a131.46 131.46 0 0 0 35 0Z" style="fill:#245f75"></path>
  <path d="M218.69 180.35A118.69 118.69 0 1 0 337.37 299 118.69 118.69 0 0 0 218.69 180.35ZM267.77 314H169.6a15 15 0 1 1 0-30h98.17a15 15 0 0 1 0 30ZM781.31 180.35A118.69 118.69 0 1 0 900 299 118.69 118.69 0 0 0 781.31 180.35ZM830.4 314H796.32v34.08a15 15 0 0 1-30 0V314H732.23a15 15 0 0 1 0-30h34.09V250a15 15 0 1 1 30 0V284H830.4a15 15 0 0 1 0 30Z" style="fill:#ff4041"></path>
</svg>
