<svg xmlns="http://www.w3.org/2000/svg" viewBox="0 0 32 32" id="music-note">
  <circle cx="16" cy="16" r="15" fill="#eef5fd"></circle>
  <circle cx="16" cy="16" r="15" fill="#eef5fd"></circle>
  <path fill="#d7e2f2" d="M31,16A15,15,0,0,0,16,1V31A15,15,0,0,0,31,16Z"></path>
  <path fill="#ff9797" d="M22.08,11.8l-5-3.61A1,1,0,0,0,15.5,9v7.56a3.91,3.91,0,0,0-2-.56,4,4,0,1,0,4,4s0-.06,0-.09a.43.43,0,0,1,0-.05V11l3.42,2.47a1,1,0,1,0,1.16-1.62Z"></path>
  <path fill="#e47979" d="M17.08,8.19a1,1,0,0,0-1-.08l0,0v15A4,4,0,0,0,17.5,20s0-.06,0-.09a.43.43,0,0,1,0-.05V11l3.42,2.47a1,1,0,1,0,1.16-1.62Z"></path>
</svg>
